<svg id="Layer_1" data-name="Layer 1" xmlns="http://www.w3.org/2000/svg" viewBox="0 0 148 32"><defs><style>.cls-1{fill:#4a8e41;}.cls-2{fill:#d3d5ec;}</style></defs><path class="cls-1" d="M114.5,16A17.49,17.49,0,0,1,124.93,0H8A8,8,0,0,0,0,8V24a8,8,0,0,0,8,8H124.93A17.49,17.49,0,0,1,114.5,16Z"/><circle class="cls-1" cx="132" cy="16" r="16"/><path class="cls-2" d="M131.53,23.4l-5,2.64A1,1,0,0,1,125.06,25l1-5.59a1,1,0,0,0-.28-.89l-4.07-4a1,1,0,0,1,.56-1.7l5.61-.82a1,1,0,0,0,.75-.54L131.1,6.4a1,1,0,0,1,1.8,0l2.51,5.09a1,1,0,0,0,.75.54l5.61.82a1,1,0,0,1,.56,1.7l-4.07,4a1,1,0,0,0-.28.89l1,5.59A1,1,0,0,1,137.48,26l-5-2.64A1,1,0,0,0,131.53,23.4Z"/><path class="cls-2" d="M28.94,9.74h2.11v7.6a4.14,4.14,0,0,1-.59,2.2A4,4,0,0,1,28.81,21a6.09,6.09,0,0,1-5,0,4,4,0,0,1-1.65-1.48,4.13,4.13,0,0,1-.58-2.2V9.74h2.1v7.42a2.64,2.64,0,0,0,.32,1.3,2.36,2.36,0,0,0,.91.89,2.88,2.88,0,0,0,1.39.32,2.94,2.94,0,0,0,1.39-.32,2.27,2.27,0,0,0,.9-.89,2.64,2.64,0,0,0,.32-1.3Z"/><path class="cls-2" d="M33.25,24.65v-12h2v1.44h.12a3.68,3.68,0,0,1,.44-.68,2.5,2.5,0,0,1,.79-.62,2.74,2.74,0,0,1,1.26-.26,3.33,3.33,0,0,1,1.83.52A3.51,3.51,0,0,1,41,14.56,5.68,5.68,0,0,1,41.49,17,5.77,5.77,0,0,1,41,19.46,3.57,3.57,0,0,1,39.74,21a3.35,3.35,0,0,1-1.84.53,2.87,2.87,0,0,1-1.25-.25,2.48,2.48,0,0,1-.79-.61A3.84,3.84,0,0,1,35.4,20h-.09v4.65Zm2-7.64a4.18,4.18,0,0,0,.24,1.48,2.17,2.17,0,0,0,.7,1,1.76,1.76,0,0,0,1.11.36,1.72,1.72,0,0,0,1.14-.37,2.24,2.24,0,0,0,.7-1A4.18,4.18,0,0,0,39.4,17a4,4,0,0,0-.24-1.44,2.11,2.11,0,0,0-.69-1,1.82,1.82,0,0,0-1.15-.36,1.76,1.76,0,0,0-1.12.35,2.07,2.07,0,0,0-.69,1A4,4,0,0,0,35.27,17Z"/><path class="cls-2" d="M47.05,21.54A4.24,4.24,0,0,1,44.81,21a3.74,3.74,0,0,1-1.43-1.59A5.13,5.13,0,0,1,42.87,17a5.21,5.21,0,0,1,.51-2.35,3.85,3.85,0,0,1,1.45-1.59A4.15,4.15,0,0,1,47,12.53a4.37,4.37,0,0,1,1.89.39A3.35,3.35,0,0,1,50.24,14a3.25,3.25,0,0,1,.55,1.65h-2a1.94,1.94,0,0,0-.57-1.06,1.66,1.66,0,0,0-1.19-.42,1.85,1.85,0,0,0-1.11.34,2.25,2.25,0,0,0-.74,1A4,4,0,0,0,45,17a4,4,0,0,0,.26,1.53,2.19,2.19,0,0,0,.73,1,1.87,1.87,0,0,0,1.12.35,1.83,1.83,0,0,0,.82-.18,1.52,1.52,0,0,0,.6-.5,2,2,0,0,0,.34-.8h2A3.47,3.47,0,0,1,50.25,20,3.18,3.18,0,0,1,49,21.14,4.2,4.2,0,0,1,47.05,21.54Z"/><path class="cls-2" d="M56.29,21.54A4.24,4.24,0,0,1,54.08,21a3.88,3.88,0,0,1-1.46-1.57A5.23,5.23,0,0,1,52.11,17a5.23,5.23,0,0,1,.51-2.37,3.91,3.91,0,0,1,1.46-1.58,4.24,4.24,0,0,1,2.21-.56,4.31,4.31,0,0,1,2.22.56A3.88,3.88,0,0,1,60,14.67,5.23,5.23,0,0,1,60.47,17,5.23,5.23,0,0,1,60,19.41,3.86,3.86,0,0,1,58.51,21,4.31,4.31,0,0,1,56.29,21.54Zm0-1.64a1.73,1.73,0,0,0,1.16-.39,2.26,2.26,0,0,0,.7-1A4.35,4.35,0,0,0,58.39,17a4.47,4.47,0,0,0-.23-1.46,2.31,2.31,0,0,0-.7-1,1.73,1.73,0,0,0-1.16-.39,1.8,1.8,0,0,0-1.18.39,2.29,2.29,0,0,0-.69,1A4.22,4.22,0,0,0,54.2,17a4.11,4.11,0,0,0,.23,1.44,2.24,2.24,0,0,0,.69,1A1.8,1.8,0,0,0,56.3,19.9Z"/><path class="cls-2" d="M62.21,21.37V12.65h2v1.48h.1a2.37,2.37,0,0,1,.9-1.18,2.67,2.67,0,0,1,1.51-.42,2.53,2.53,0,0,1,1.5.43,2.37,2.37,0,0,1,.86,1.17h.09a2.35,2.35,0,0,1,1-1.16,3,3,0,0,1,1.64-.44,2.67,2.67,0,0,1,2,.76,3,3,0,0,1,.77,2.22v5.86H72.42V15.83A1.49,1.49,0,0,0,72,14.64a1.57,1.57,0,0,0-1.06-.38,1.49,1.49,0,0,0-1.16.47,1.72,1.72,0,0,0-.42,1.2v5.44h-2V15.75a1.46,1.46,0,0,0-.41-1.08,1.43,1.43,0,0,0-1.06-.41,1.49,1.49,0,0,0-.8.23,1.54,1.54,0,0,0-.58.63,1.93,1.93,0,0,0-.22,1v5.3Z"/><path class="cls-2" d="M77.61,11.41a1.17,1.17,0,0,1-.84-.33,1.07,1.07,0,0,1,0-1.58,1.23,1.23,0,0,1,1.68,0,1.07,1.07,0,0,1,0,1.58A1.17,1.17,0,0,1,77.61,11.41Zm-1,10V12.65h2v8.72Z"/><path class="cls-2" d="M82.8,16.26v5.11h-2V12.65h2v1.48h.1a2.58,2.58,0,0,1,1-1.17,3,3,0,0,1,1.64-.43,3.07,3.07,0,0,1,1.57.39A2.65,2.65,0,0,1,88,14a3.87,3.87,0,0,1,.37,1.78v5.55H86.35V16.13a2,2,0,0,0-.45-1.37,1.61,1.61,0,0,0-1.25-.49,1.9,1.9,0,0,0-1,.24,1.62,1.62,0,0,0-.65.67A2.27,2.27,0,0,0,82.8,16.26Z"/><path class="cls-2" d="M94.3,24.83a5.43,5.43,0,0,1-1.91-.3,3.42,3.42,0,0,1-1.27-.8,2.57,2.57,0,0,1-.67-1.11l1.85-.45a2,2,0,0,0,.36.51,1.83,1.83,0,0,0,.65.42,2.71,2.71,0,0,0,1,.17,2.37,2.37,0,0,0,1.45-.42,1.63,1.63,0,0,0,.57-1.39V19.8h-.1a2.83,2.83,0,0,1-.46.66A2.43,2.43,0,0,1,95,21a3,3,0,0,1-1.25.23,3.51,3.51,0,0,1-1.82-.48,3.33,3.33,0,0,1-1.3-1.42A5.21,5.21,0,0,1,90.14,17a5.54,5.54,0,0,1,.48-2.43,3.56,3.56,0,0,1,1.3-1.5,3.33,3.33,0,0,1,1.83-.52,2.74,2.74,0,0,1,1.26.26,2.4,2.4,0,0,1,.79.62,3.31,3.31,0,0,1,.45.68h.12V12.65h2v8.86a3.06,3.06,0,0,1-.53,1.86,3.24,3.24,0,0,1-1.46,1.09A5.57,5.57,0,0,1,94.3,24.83Zm0-5.2a1.94,1.94,0,0,0,1.12-.31,2,2,0,0,0,.7-.92A3.82,3.82,0,0,0,96.37,17a4,4,0,0,0-.24-1.44,2.14,2.14,0,0,0-.69-1,1.83,1.83,0,0,0-1.13-.34,1.79,1.79,0,0,0-1.14.36,2.17,2.17,0,0,0-.7,1A4.09,4.09,0,0,0,92.24,17a3.77,3.77,0,0,0,.24,1.4,2,2,0,0,0,.7.93A1.87,1.87,0,0,0,94.31,19.63Z"/></svg>