<svg id="Layer_1" data-name="Layer 1" xmlns="http://www.w3.org/2000/svg" viewBox="0 0 148 32"><defs><style>.cls-1{fill:#812249;}.cls-2{fill:#d3d5ec;}</style></defs><path class="cls-1" d="M114.5,16A17.49,17.49,0,0,1,124.93,0H8A8,8,0,0,0,0,8V24a8,8,0,0,0,8,8H124.93A17.49,17.49,0,0,1,114.5,16Z"/><circle class="cls-1" cx="132" cy="16" r="16"/><path class="cls-2" d="M131.53,23.4l-5,2.64A1,1,0,0,1,125.06,25l1-5.59a1,1,0,0,0-.28-.89l-4.07-4a1,1,0,0,1,.56-1.7l5.61-.82a1,1,0,0,0,.75-.54L131.1,6.4a1,1,0,0,1,1.8,0l2.51,5.09a1,1,0,0,0,.75.54l5.61.82a1,1,0,0,1,.56,1.7l-4.07,4a1,1,0,0,0-.28.89l1,5.59A1,1,0,0,1,137.48,26l-5-2.64A1,1,0,0,0,131.53,23.4Z"/><path class="cls-2" d="M25.7,13.73A1.54,1.54,0,0,0,25,12.57a2.62,2.62,0,0,0-1.52-.41,2.93,2.93,0,0,0-1.13.2,1.56,1.56,0,0,0-.72.54,1.24,1.24,0,0,0-.26.78,1.19,1.19,0,0,0,.17.63,1.42,1.42,0,0,0,.46.45,3.46,3.46,0,0,0,.64.31c.23.08.47.15.71.21l1.09.27a7,7,0,0,1,1.27.42,4.63,4.63,0,0,1,1.1.65,3.11,3.11,0,0,1,.77,1,3.05,3.05,0,0,1,.28,1.32,3.14,3.14,0,0,1-.52,1.8,3.41,3.41,0,0,1-1.51,1.21,5.9,5.9,0,0,1-2.39.44,6,6,0,0,1-2.35-.42,3.55,3.55,0,0,1-1.56-1.23,3.64,3.64,0,0,1-.6-2H21a1.72,1.72,0,0,0,.38,1,2,2,0,0,0,.86.61,3.41,3.41,0,0,0,1.19.2,3.23,3.23,0,0,0,1.21-.21,2,2,0,0,0,.81-.58,1.35,1.35,0,0,0,.3-.87,1.09,1.09,0,0,0-.27-.76,2,2,0,0,0-.73-.5,8.19,8.19,0,0,0-1.09-.36l-1.32-.34a5.2,5.2,0,0,1-2.27-1.12,2.55,2.55,0,0,1-.84-2,3,3,0,0,1,.56-1.8,3.77,3.77,0,0,1,1.53-1.21,5.41,5.41,0,0,1,2.19-.42,5.25,5.25,0,0,1,2.17.42A3.71,3.71,0,0,1,27.18,12a3,3,0,0,1,.55,1.74Z"/><path class="cls-2" d="M35.24,18.5V13.44h2v8.73h-2V20.62h-.09a2.64,2.64,0,0,1-1,1.2,2.85,2.85,0,0,1-1.66.46,2.9,2.9,0,0,1-1.51-.38,2.61,2.61,0,0,1-1-1.12A4,4,0,0,1,29.67,19V13.44h2.06v5.24A1.85,1.85,0,0,0,32.19,20a1.53,1.53,0,0,0,1.19.49,2,2,0,0,0,.88-.22,1.8,1.8,0,0,0,.7-.67A2.06,2.06,0,0,0,35.24,18.5Z"/><path class="cls-2" d="M43.2,25.62a5.39,5.39,0,0,1-1.9-.29,3.46,3.46,0,0,1-1.28-.8,2.74,2.74,0,0,1-.67-1.11L41.2,23a2.34,2.34,0,0,0,.37.51,1.7,1.7,0,0,0,.64.42,2.73,2.73,0,0,0,1,.17,2.41,2.41,0,0,0,1.45-.42,1.63,1.63,0,0,0,.57-1.39V20.6h-.1a3.13,3.13,0,0,1-.47.66,2.43,2.43,0,0,1-.8.56,3,3,0,0,1-1.24.23,3.55,3.55,0,0,1-1.83-.48,3.37,3.37,0,0,1-1.29-1.42,5.21,5.21,0,0,1-.48-2.37,5.54,5.54,0,0,1,.48-2.43,3.58,3.58,0,0,1,1.3-1.51,3.35,3.35,0,0,1,1.82-.51,2.81,2.81,0,0,1,1.27.26,2.5,2.5,0,0,1,.79.62,4,4,0,0,1,.45.68h.11V13.44h2v8.87a3,3,0,0,1-.54,1.85,3.14,3.14,0,0,1-1.46,1.1A5.71,5.71,0,0,1,43.2,25.62Zm0-5.19a1.84,1.84,0,0,0,1.11-.32,1.91,1.91,0,0,0,.7-.91,3.86,3.86,0,0,0,.24-1.43A4,4,0,0,0,45,16.32a2,2,0,0,0-.69-1A1.8,1.8,0,0,0,43.22,15a1.82,1.82,0,0,0-1.15.36,2.05,2.05,0,0,0-.69,1,4,4,0,0,0-.23,1.42,3.77,3.77,0,0,0,.23,1.4,2,2,0,0,0,.7.93A1.92,1.92,0,0,0,43.22,20.43Z"/><path class="cls-2" d="M53.21,25.62a5.44,5.44,0,0,1-1.91-.29,3.42,3.42,0,0,1-1.27-.8,2.63,2.63,0,0,1-.67-1.11L51.21,23a2,2,0,0,0,.36.51,1.83,1.83,0,0,0,.65.42,2.71,2.71,0,0,0,1,.17,2.37,2.37,0,0,0,1.45-.42,1.63,1.63,0,0,0,.57-1.39V20.6h-.1a3.05,3.05,0,0,1-.46.66,2.43,2.43,0,0,1-.8.56,3,3,0,0,1-1.25.23,3.51,3.51,0,0,1-1.82-.48,3.39,3.39,0,0,1-1.3-1.42,5.21,5.21,0,0,1-.48-2.37,5.54,5.54,0,0,1,.48-2.43,3.65,3.65,0,0,1,1.3-1.51,3.41,3.41,0,0,1,1.83-.51,2.74,2.74,0,0,1,1.26.26,2.4,2.4,0,0,1,.79.62,3.06,3.06,0,0,1,.45.68h.12V13.44h2v8.87a3,3,0,0,1-.53,1.85,3.19,3.19,0,0,1-1.46,1.1A5.78,5.78,0,0,1,53.21,25.62Zm0-5.19a1.87,1.87,0,0,0,1.12-.32,1.91,1.91,0,0,0,.7-.91,3.86,3.86,0,0,0,.24-1.43A4,4,0,0,0,55,16.32a2.17,2.17,0,0,0-.69-1A1.83,1.83,0,0,0,53.22,15a1.79,1.79,0,0,0-1.14.36,2.14,2.14,0,0,0-.7,1,4.19,4.19,0,0,0-.23,1.42,3.77,3.77,0,0,0,.24,1.4,2,2,0,0,0,.7.93A1.87,1.87,0,0,0,53.22,20.43Z"/><path class="cls-2" d="M63.28,22.34A4.4,4.4,0,0,1,61,21.79a3.67,3.67,0,0,1-1.47-1.55A5.25,5.25,0,0,1,59,17.86a5.11,5.11,0,0,1,.52-2.37A3.83,3.83,0,0,1,61,13.9a4,4,0,0,1,2.17-.57,4.55,4.55,0,0,1,1.53.26,3.46,3.46,0,0,1,1.27.8,3.66,3.66,0,0,1,.87,1.37,5.34,5.34,0,0,1,.32,2v.63H60V17h5.18a2.15,2.15,0,0,0-.26-1.05,1.8,1.8,0,0,0-.69-.73,2.14,2.14,0,0,0-2.15,0,2.16,2.16,0,0,0-.74.79,2.46,2.46,0,0,0-.27,1.08v1.21a2.87,2.87,0,0,0,.28,1.3,2,2,0,0,0,.78.83,2.54,2.54,0,0,0,2,.16,1.69,1.69,0,0,0,.63-.38,1.5,1.5,0,0,0,.41-.62l1.92.22a3,3,0,0,1-.69,1.33,3.54,3.54,0,0,1-1.3.87A4.87,4.87,0,0,1,63.28,22.34Z"/><path class="cls-2" d="M75.8,15.75l-1.88.2a1.57,1.57,0,0,0-.27-.53,1.35,1.35,0,0,0-.53-.4,1.78,1.78,0,0,0-.8-.16,2,2,0,0,0-1.08.28.83.83,0,0,0-.43.72.76.76,0,0,0,.28.62,2.44,2.44,0,0,0,1,.4l1.49.31a3.8,3.8,0,0,1,1.85.85A2.06,2.06,0,0,1,76,19.56,2.45,2.45,0,0,1,75.51,21a3.18,3.18,0,0,1-1.32,1,5,5,0,0,1-1.93.35,4.45,4.45,0,0,1-2.58-.67,2.73,2.73,0,0,1-1.17-1.88l2-.19a1.4,1.4,0,0,0,.58.89,2,2,0,0,0,1.15.3,2.08,2.08,0,0,0,1.18-.3.88.88,0,0,0,.45-.75.8.8,0,0,0-.29-.62,2.12,2.12,0,0,0-.89-.37l-1.49-.31a3.6,3.6,0,0,1-1.86-.89A2.12,2.12,0,0,1,68.76,16a2.17,2.17,0,0,1,.44-1.4,2.79,2.79,0,0,1,1.24-.92,4.85,4.85,0,0,1,1.85-.33A4,4,0,0,1,74.7,14,2.78,2.78,0,0,1,75.8,15.75Z"/><path class="cls-2" d="M82,13.44V15H77V13.44Zm-3.78-2.09h2.06v8.2a1.23,1.23,0,0,0,.13.63.71.71,0,0,0,.34.3,1.34,1.34,0,0,0,.46.08,2,2,0,0,0,.36,0l.24-.05.35,1.6-.47.13a3.72,3.72,0,0,1-.74.08,3.28,3.28,0,0,1-1.39-.24,2.14,2.14,0,0,1-1-.8,2.42,2.42,0,0,1-.36-1.36Z"/><path class="cls-2" d="M87.54,22.34a4.44,4.44,0,0,1-2.27-.55,3.65,3.65,0,0,1-1.46-1.55,5.25,5.25,0,0,1-.51-2.38,5.23,5.23,0,0,1,.51-2.37,3.89,3.89,0,0,1,1.44-1.59,4.1,4.1,0,0,1,2.18-.57,4.45,4.45,0,0,1,1.52.26,3.5,3.5,0,0,1,1.28.8,3.66,3.66,0,0,1,.87,1.37,5.55,5.55,0,0,1,.32,2v.63H84.26V17h5.19a2.27,2.27,0,0,0-.26-1.05,1.89,1.89,0,0,0-.7-.73,1.93,1.93,0,0,0-1-.27,2,2,0,0,0-1.11.31,2,2,0,0,0-.74.79,2.22,2.22,0,0,0-.27,1.08v1.21a2.74,2.74,0,0,0,.28,1.3,1.94,1.94,0,0,0,.77.83,2.56,2.56,0,0,0,2,.16,1.69,1.69,0,0,0,.63-.38,1.48,1.48,0,0,0,.4-.62l1.92.22a3,3,0,0,1-.69,1.33,3.46,3.46,0,0,1-1.3.87A4.82,4.82,0,0,1,87.54,22.34Z"/><path class="cls-2" d="M96.39,22.32a3.34,3.34,0,0,1-1.84-.52,3.63,3.63,0,0,1-1.28-1.54,5.77,5.77,0,0,1-.47-2.44,5.68,5.68,0,0,1,.48-2.46,3.55,3.55,0,0,1,1.3-1.52,3.35,3.35,0,0,1,1.82-.51,2.74,2.74,0,0,1,1.26.26,2.5,2.5,0,0,1,.79.62,3.38,3.38,0,0,1,.44.68H99V10.53H101V22.17H99V20.8h-.13a3,3,0,0,1-.46.67,2.33,2.33,0,0,1-.79.6A2.73,2.73,0,0,1,96.39,22.32ZM97,20.64a1.74,1.74,0,0,0,1.11-.36,2.2,2.2,0,0,0,.7-1,4.68,4.68,0,0,0,0-3,2.05,2.05,0,0,0-.69-1A1.8,1.8,0,0,0,97,15a1.82,1.82,0,0,0-1.15.36,2,2,0,0,0-.69,1,4.5,4.5,0,0,0,0,2.9,2.21,2.21,0,0,0,.7,1A1.81,1.81,0,0,0,97,20.64Z"/></svg>