<svg id="Layer_1" data-name="Layer 1" xmlns="http://www.w3.org/2000/svg" viewBox="0 0 99 26.9"><defs><style>.cls-1{fill:#2e4081;}</style></defs><path class="cls-1" d="M0,26.54V.36H5.54V22H16.76v4.56Z"/><path class="cls-1" d="M43.47,13.45a15.22,15.22,0,0,1-1.62,7.29,11.3,11.3,0,0,1-4.4,4.58,12.42,12.42,0,0,1-6.24,1.58,12.38,12.38,0,0,1-6.27-1.59,11.16,11.16,0,0,1-4.38-4.59A15.11,15.11,0,0,1,19,13.45a15.19,15.19,0,0,1,1.61-7.29,11.2,11.2,0,0,1,4.38-4.58A12.48,12.48,0,0,1,31.21,0a12.42,12.42,0,0,1,6.24,1.58,11.3,11.3,0,0,1,4.4,4.58A15.19,15.19,0,0,1,43.47,13.45Zm-5.62,0A11.78,11.78,0,0,0,37,8.77a6.38,6.38,0,0,0-2.32-2.89,6.76,6.76,0,0,0-7,0,6.44,6.44,0,0,0-2.32,2.89,11.78,11.78,0,0,0-.82,4.68,11.78,11.78,0,0,0,.82,4.68A6.44,6.44,0,0,0,27.7,21a6.76,6.76,0,0,0,7,0A6.38,6.38,0,0,0,37,18.13,11.78,11.78,0,0,0,37.85,13.45Z"/><path class="cls-1" d="M64.92,8.82a5.68,5.68,0,0,0-.76-1.65A4.61,4.61,0,0,0,63,5.94a5,5,0,0,0-1.58-.77,6.8,6.8,0,0,0-2-.27,6.28,6.28,0,0,0-3.52,1,6.6,6.6,0,0,0-2.36,2.9,11.4,11.4,0,0,0-.84,4.63,11.77,11.77,0,0,0,.83,4.66A6.45,6.45,0,0,0,55.89,21a6.37,6.37,0,0,0,3.59,1,7.06,7.06,0,0,0,3.22-.67,4.84,4.84,0,0,0,2-1.9,5.71,5.71,0,0,0,.7-2.9l1.13.17H59.83V12.53h11v3.3a11.47,11.47,0,0,1-1.46,5.92,9.84,9.84,0,0,1-4,3.81,12.43,12.43,0,0,1-5.85,1.34A12.64,12.64,0,0,1,53,25.27a11.25,11.25,0,0,1-4.34-4.64,15.37,15.37,0,0,1-1.55-7.16A16.47,16.47,0,0,1,48,7.79a12.26,12.26,0,0,1,2.6-4.24A11.37,11.37,0,0,1,54.52.91,12.57,12.57,0,0,1,59.34,0a12.94,12.94,0,0,1,4.15.65,11.11,11.11,0,0,1,3.4,1.82,9.61,9.61,0,0,1,3.65,6.35Z"/><path class="cls-1" d="M99,13.45a15.22,15.22,0,0,1-1.62,7.29A11.24,11.24,0,0,1,93,25.32a13.12,13.12,0,0,1-12.5,0,11.18,11.18,0,0,1-4.39-4.59,15.22,15.22,0,0,1-1.61-7.27,15.3,15.3,0,0,1,1.61-7.29,11.22,11.22,0,0,1,4.39-4.58,13.15,13.15,0,0,1,12.5,0,11.24,11.24,0,0,1,4.4,4.58A15.19,15.19,0,0,1,99,13.45Zm-5.61,0a11.77,11.77,0,0,0-.83-4.68,6.38,6.38,0,0,0-2.32-2.89,6.74,6.74,0,0,0-7,0,6.38,6.38,0,0,0-2.32,2.89,11.77,11.77,0,0,0-.83,4.68,11.77,11.77,0,0,0,.83,4.68A6.38,6.38,0,0,0,83.24,21a6.74,6.74,0,0,0,7,0,6.38,6.38,0,0,0,2.32-2.89A11.77,11.77,0,0,0,93.39,13.45Z"/></svg>